<mxfile host="app.diagrams.net" modified="2024-05-14T07:18:45.441Z" agent="Mozilla/5.0 (Windows NT 10.0; Win64; x64) AppleWebKit/537.36 (KHTML, like Gecko) Chrome/124.0.0.0 Safari/537.36" etag="PBEaINJ8OhH_kPn2OS0A" version="24.4.0" type="github">
  <diagram name="第 1 页" id="HV8gdYwcjKJ2PIOH680F">
    <mxGraphModel dx="1434" dy="746" grid="1" gridSize="10" guides="1" tooltips="1" connect="1" arrows="1" fold="1" page="1" pageScale="1" pageWidth="4681" pageHeight="3300" math="0" shadow="0">
      <root>
        <mxCell id="0" />
        <mxCell id="1" parent="0" />
        <mxCell id="t5CQ1CdHMxRMqGL0ar8x-10" style="edgeStyle=orthogonalEdgeStyle;rounded=0;orthogonalLoop=1;jettySize=auto;html=1;exitX=0.5;exitY=1;exitDx=0;exitDy=0;entryX=0.5;entryY=0;entryDx=0;entryDy=0;" edge="1" parent="1" source="t5CQ1CdHMxRMqGL0ar8x-1" target="t5CQ1CdHMxRMqGL0ar8x-4">
          <mxGeometry relative="1" as="geometry" />
        </mxCell>
        <mxCell id="t5CQ1CdHMxRMqGL0ar8x-1" value="根据使用数量生成&lt;div&gt;对应的SendItem&lt;/div&gt;" style="rounded=0;whiteSpace=wrap;html=1;" vertex="1" parent="1">
          <mxGeometry x="370" y="100" width="160" height="40" as="geometry" />
        </mxCell>
        <mxCell id="t5CQ1CdHMxRMqGL0ar8x-2" value="使用道具卡" style="text;html=1;align=center;verticalAlign=middle;resizable=0;points=[];autosize=1;strokeColor=none;fillColor=none;" vertex="1" parent="1">
          <mxGeometry x="240" y="105" width="80" height="30" as="geometry" />
        </mxCell>
        <mxCell id="t5CQ1CdHMxRMqGL0ar8x-3" value="这里需要转换&lt;div&gt;直接用16大类&lt;/div&gt;&lt;div&gt;无法获得实例Id&lt;/div&gt;" style="text;html=1;align=center;verticalAlign=middle;resizable=0;points=[];autosize=1;strokeColor=none;fillColor=none;" vertex="1" parent="1">
          <mxGeometry x="590" y="90" width="110" height="60" as="geometry" />
        </mxCell>
        <mxCell id="t5CQ1CdHMxRMqGL0ar8x-11" style="edgeStyle=orthogonalEdgeStyle;rounded=0;orthogonalLoop=1;jettySize=auto;html=1;exitX=0.5;exitY=1;exitDx=0;exitDy=0;entryX=0.5;entryY=0;entryDx=0;entryDy=0;" edge="1" parent="1" source="t5CQ1CdHMxRMqGL0ar8x-4" target="t5CQ1CdHMxRMqGL0ar8x-6">
          <mxGeometry relative="1" as="geometry" />
        </mxCell>
        <mxCell id="t5CQ1CdHMxRMqGL0ar8x-4" value="从SendItemResult中&lt;div&gt;取出实例Id&lt;/div&gt;" style="rounded=0;whiteSpace=wrap;html=1;" vertex="1" parent="1">
          <mxGeometry x="370" y="170" width="160" height="40" as="geometry" />
        </mxCell>
        <mxCell id="t5CQ1CdHMxRMqGL0ar8x-6" value="配置晶核or样本达到指定等级" style="rounded=0;whiteSpace=wrap;html=1;" vertex="1" parent="1">
          <mxGeometry x="370" y="240" width="160" height="40" as="geometry" />
        </mxCell>
        <mxCell id="t5CQ1CdHMxRMqGL0ar8x-8" value="晶核：&lt;div&gt;pveChip.setExp()&lt;/div&gt;&lt;div&gt;pveChip.setLevel()&lt;/div&gt;" style="text;html=1;align=left;verticalAlign=middle;resizable=0;points=[];autosize=1;strokeColor=none;fillColor=none;" vertex="1" parent="1">
          <mxGeometry x="610" y="230" width="120" height="60" as="geometry" />
        </mxCell>
        <mxCell id="t5CQ1CdHMxRMqGL0ar8x-9" value="样本：&lt;div&gt;pveMod.setExp()&lt;/div&gt;&lt;div&gt;pveMod.setLevel()&lt;/div&gt;" style="text;html=1;align=left;verticalAlign=middle;resizable=0;points=[];autosize=1;strokeColor=none;fillColor=none;" vertex="1" parent="1">
          <mxGeometry x="740" y="230" width="120" height="60" as="geometry" />
        </mxCell>
      </root>
    </mxGraphModel>
  </diagram>
</mxfile>
